<svg xmlns="http://www.w3.org/2000/svg" viewBox="0 0 256 256" role="img" aria-label="MAX"><defs><linearGradient id="g" x1="22" y1="232" x2="233" y2="22" gradientUnits="userSpaceOnUse"><stop stop-color="#35D6F5"/><stop offset=".52" stop-color="#4857F2"/><stop offset="1" stop-color="#9A25E8"/></linearGradient><mask id="m"><rect width="256" height="256" fill="#000"/><path d="M127.5 39C77.2 39 39 76.7 39 125.5c0 22.5 8.1 43.4 22.1 59.3l-7.3 29.5c-2.2 8.8 7.2 15.7 15 11l28.3-17c9.5 2.7 19.7 4.2 30.4 4.2 50.3 0 89.5-37.7 89.5-87S177.8 39 127.5 39Z" fill="#fff"/><circle cx="132" cy="124" r="40" fill="#000"/><path d="M68 172c-11 13-18 27-20 42-1 10 10 17 19 11l31-19c10-6 12-18 6-27l-9-13c-7-10-19-7-27 6Z" fill="#fff"/></mask></defs><rect width="256" height="256" rx="62" fill="url(#g)"/><rect width="256" height="256" fill="#fff" mask="url(#m)"/></svg>