<svg xmlns="http://www.w3.org/2000/svg" viewBox="0 0 24 24" role="img" aria-label="WhatsApp"><path fill="#25D366" d="M12.04 2a9.84 9.84 0 0 0-8.43 14.91L2 22l5.22-1.57A9.95 9.95 0 1 0 12.04 2Zm0 17.98a8.1 8.1 0 0 1-4.12-1.13l-.3-.18-3.1.94.95-3.02-.2-.31A8 8 0 1 1 12.04 20Zm4.44-6.02c-.24-.12-1.44-.71-1.66-.79-.22-.08-.39-.12-.55.12-.16.24-.63.79-.77.95-.14.16-.28.18-.53.06-.24-.12-1.03-.38-1.96-1.21-.72-.65-1.21-1.44-1.35-1.68-.14-.25-.01-.38.11-.5.11-.11.24-.28.36-.43.12-.14.16-.24.24-.4.08-.16.04-.3-.02-.43-.06-.12-.55-1.32-.75-1.8-.2-.48-.4-.41-.55-.42h-.47c-.16 0-.43.06-.65.3-.22.25-.85.83-.85 2.03 0 1.2.87 2.35.99 2.51.12.16 1.71 2.62 4.15 3.68.58.25 1.03.4 1.39.51.58.19 1.11.16 1.53.1.47-.07 1.44-.59 1.64-1.16.2-.57.2-1.06.14-1.16-.06-.1-.22-.16-.46-.28Z"/></svg>